<?xml version="1.0" standalone="no"?><!DOCTYPE svg PUBLIC "-//W3C//DTD SVG 1.1//EN" "http://www.w3.org/Graphics/SVG/1.1/DTD/svg11.dtd"><svg t="1506761869319" class="icon" style="" viewBox="0 0 1024 1024" version="1.1" xmlns="http://www.w3.org/2000/svg" p-id="3319" xmlns:xlink="http://www.w3.org/1999/xlink" width="200" height="200"><defs><style type="text/css"></style></defs><path d="M554.7 224c0.1 0 0.1 0.1 0.2 0.1l19-74.2c-0.7-0.1-1.3-0.5-1.8-0.6l-36 67.7c0.1 0 0.3 0.1 0.5 0.1 6.2 2.1 12.3 4.4 18.1 6.9z" fill="#3592DB" p-id="3320"></path><path d="M345.3 312.3c3.4 0.4 6.9 0.9 10.3 1.3 10.4 1.4 21 3 31.6 4.9 28.5 5 57.9 11.8 87.8 20.2 75.1 21.3 141.9 50.8 194.3 83.5 15.8-79.3-31.9-162.2-114.4-198.1-0.1 0-0.1-0.1-0.2-0.1-5.8-2.5-11.9-4.8-18.1-6.9-0.1-0.1-0.3-0.1-0.5-0.1-0.1 0-0.1 0-0.1-0.1-95.8-31.4-196.1 9.5-231 91.7 3.3 0.2 6.6 0.4 9.9 0.7 10 0.8 20.1 1.8 30.4 3z m77.6-74.8c5.3 0 9.6 2.9 9.6 6.4 0.1 3.6-4.2 6.4-9.6 6.4-5 0-9-2.5-9.5-5.7v-0.1-0.7c-0.1-3.5 4.2-6.3 9.5-6.3zM358.7 272s8.5-8.7 15.4-13.5c6.1-4.4 10-6.6 12.3-7.7 2.3-1.1 3.1-1.2 3.1-1.2 0.1 0 0.2-0.1 0.3-0.1 0.3-0.1 0.7-0.2 1-0.3 0.1 0 0.2 0 0.3-0.1 0.1 0 0.2-0.1 0.4-0.1 4.4-0.8 8.9 0.2 11.1 3.5 2.4 3.7 1.3 8.8-2.4 11.2 0 0-0.1 0-0.2 0.1l-0.1 0.1s-7.9 3.1-13.1 5.7c-1.2 0.6-2.2 1.1-2.9 1.6-4 2.6-15.8 13.9-15.8 13.9l-0.6 0.3c-0.1 0.1-0.2 0.1-0.3 0.2-0.2 0.1-0.5 0.2-0.7 0.3-0.9 0.4-1.9 0.6-2.9 0.6-2.7 0.1-5.4-1.2-7.1-3.6-2.5-3.4-1-8.5 2.2-10.9z" fill="#8DD9FF" p-id="3321"></path><path d="M669.4 422.3c-52.4-32.7-119.2-62.1-194.3-83.5-29.9-8.5-59.3-15.2-87.8-20.2-10.7-1.9-21.2-3.5-31.6-4.9-3.5-0.5-6.9-0.9-10.3-1.3-10.3-1.2-20.4-2.2-30.4-3-3.3-0.3-6.6-0.5-9.9-0.7-117.9-7.3-206.9 19-222.6 74.2-14 49.3 33.9 109.9 118.5 162.1l5-5.2c-81.3-49.5-127.4-106-114.4-151.6 4.6-16.2 16.4-29.7 33.9-40.3 0.1 0 0.1-0.1 0.2-0.1 25.6-15.4 63.3-24.6 109.2-27.4 3.5-0.2 7.1-0.4 10.7-0.5 5.4-0.2 11-0.3 16.6-0.3h5.7c5.7 0 11.5 0.2 17.3 0.4 3.9 0.1 7.9 0.3 11.9 0.5s8 0.5 12.1 0.8c4.1 0.3 8.2 0.6 12.3 1 4.1 0.4 8.3 0.8 12.5 1.3 21 2.3 42.7 5.6 65 9.9 4.5 0.9 8.9 1.8 13.4 2.7 20.3 4.3 40.9 9.4 61.8 15.3 190 54 327 158.1 305.8 232.5-2.8 9.8-8.2 18.6-15.8 26.5-16 16.1-41.9 27.7-75.1 34.7-35.8 7.5-80.2 9.5-129.5 5.7l-0.7 6.1c119.9 8.3 210.9-18.1 226.8-73.8 13.9-49-33.1-109-116.3-160.9z" fill="#9FDDFC" p-id="3322"></path><path d="M573 527.2l-0.8 7.7c0.1-0.5 0.3-0.9 0.5-1.4l0.3-1.5c0.1-0.5 0.1-1 0.2-1.6 0-1 0-2.1-0.2-3.2z" fill="#DEF1FD" p-id="3323"></path><path d="M363.5 286.7c1 0 2-0.2 2.9-0.6 0.2-0.1 0.5-0.2 0.7-0.3 0.1-0.1 0.2-0.1 0.3-0.2 0.1-0.1 0.2-0.1 0.3-0.2 0 0 11.8-11.2 15.8-13.9 0.8-0.5 1.9-1.1 3.1-1.7 5.2-2.6 13.1-5.7 13.1-5.7l0.1-0.1c3.6-2.4 4.6-7.4 2.2-11.1-2.1-3.2-6.3-4.5-10.6-3.7-0.1 0-0.2 0-0.4 0.1-0.1 0-0.2 0-0.3 0.1-0.3 0.1-0.7 0.2-1 0.3-0.1 0-0.2 0-0.3 0.1 0 0-0.8 0.1-3.1 1.2-2.3 1.1-6.2 3.3-12.3 7.7-6.9 4.8-15.4 13.5-15.4 13.5-3.2 2.4-4.7 7.5-2.3 11.1 1.8 2.2 4.5 3.5 7.2 3.4zM413.4 244.6c0.5 3.2 4.6 5.7 9.5 5.7 5.3 0 9.6-2.9 9.6-6.4 0-3.5-4.3-6.4-9.6-6.4s-9.6 2.9-9.6 6.4c0 0.2 0 0.4 0.1 0.7z" fill="#FFFFFF" p-id="3324"></path><path d="M573.9 149.9c1.1 0.3 2.4 0.6 3.7 0.6 7.1 0 12.8-5.7 12.8-12.8 0-7.1-5.7-12.8-12.8-12.8s-12.8 5.7-12.8 12.8c0 5.2 3 9.5 7.3 11.6 0.5 0.1 1.1 0.5 1.8 0.6z" fill="#2CB4FF" p-id="3325"></path><path d="M220.9 548.5c-5.1-2.8-10.1-5.7-14.9-8.6l-5 5.2c4.9 3 10 6 15.1 9l4.8-5.6c0.1 0 0.1 0 0 0zM549.2 649.9c-47.3-4.4-98.8-14-151.7-29.1-65.1-18.5-123.9-42.9-172.4-70l-4.7 5.5C269 583.8 328 608.4 393.1 627c54.1 15.4 106.9 25 155.2 29.1l0.8-6.2h0.1zM558.8 657l0.7-6.1c-1.9-0.2-3.8-0.4-5.8-0.5l-0.9 6.1c2 0.2 4 0.3 6 0.5z" fill="#9FDDFC" p-id="3326"></path><path d="M780 584c21.2-74.4-115.8-178.5-305.9-232.6-20.9-5.9-41.5-11-61.8-15.3-4.5-0.9-9-1.9-13.4-2.7-22.3-4.3-44-7.6-65-9.9-4.2-0.5-8.4-0.9-12.5-1.3s-8.2-0.7-12.3-1c-4.1-0.3-8.1-0.6-12.1-0.8-4-0.2-7.9-0.4-11.9-0.5-5.9-0.2-11.7-0.3-17.3-0.4h-5.7c-5.6 0-11.2 0.1-16.6 0.3-3.6 0.1-7.2 0.3-10.7 0.5-45.8 2.8-83.6 12-109.2 27.4-0.1 0-0.1 0.1-0.2 0.1-17.5 10.6-29.2 24-33.8 40.2-13 45.5 33.2 102 114.4 151.6l-0.1 0.1h0.1c4.8 2.9 9.8 5.8 14.8 8.7l38.9-44.7 3.5 3-38.2 44c48.5 27.1 107.3 51.5 172.4 70 53 15.1 104.5 24.6 151.7 29l1.9-13-1.9 13.1h-0.1l-0.8 6.2-28 194.6 4.5 0.7 28-194.9 0.9-6.1v-0.1l11.2-77.8-11.1 77.7c1.9 0.2 3.9 0.3 5.8 0.5L572 535.2c-7.2 16.7-46.9 21.3-98.2 13.3-16.6-2.6-34.5-6.5-52.9-11.7-76.9-21.9-133.9-58.9-127.1-82.5 1.4-4.7 5.2-8.6 11-11.6 9.6-5 24.9-7.4 43.8-7.3 26.7 0.1 60.8 5.2 96.9 15.5 69.9 20 123.2 52.2 127.4 75.7v-0.2c-3.2-12.8-6.4-16-25.8-32.2-55.1-46-202.9-77.3-244.8-51.6l0.1-0.1c42-25.7 189.6 5.6 244.9 51.7 19.4 16 22.6 19.4 25.8 32.2l-0.1 0.8c0.2 1.1 0.2 2.2 0.2 3.2 0 0.5-0.1 1.1-0.2 1.6l-0.3 1.5c-0.1 0.5-0.3 0.9-0.5 1.4l-12.5 115.9c49.3 3.8 93.6 1.9 129.4-5.6 33.1-6.9 59.1-18.6 75.1-34.7 7.6-7.9 13-16.7 15.8-26.5z m-217.7-25.3l4.5 0.7v0.1l-4.5-0.7v-0.1z" fill="#2A99EF" p-id="3327"></path><path d="M445.5 450.9c-36.1-10.3-70.2-15.4-96.9-15.5-18.9-0.1-34.2 2.4-43.8 7.3-5.7 2.9-9.4 6.8-10.8 11.5-6.8 23.7 50.2 60.6 127.1 82.5 18.3 5.2 36.2 9.1 52.7 11.7 51.3 8 91 3.4 98.2-13.3 0-0.1 0.1-0.2 0.2-0.3l0.8-7.7c0-0.1 0-0.2-0.1-0.4v-0.1c-4.2-23.5-57.5-55.7-127.4-75.7z" fill="#9FDDFC" p-id="3328"></path><path d="M289.3 830.7l-25.3-8.1c-0.9-7.5-6.1-14.1-13.6-16.5l-9.4-3c-10.4-3.3-21.6 2.5-24.9 12.8l-3.6 11-3 9.4-6.5 20.5c-3.3 10.4 2.5 21.6 12.8 24.9l51.9 16.6c10.4 3.3 21.6-2.5 24.9-12.8l9.5-29.9c3.4-10.3-2.4-21.5-12.8-24.9z" fill="#FFDE02" p-id="3329"></path><path d="M308.9 713.5L284 648.3c-1.4-3.6-5.4-5.3-8.8-4l-4 1.5H272.1c5.4-0.1 9.4 6.4 5.8 11.5l-29.2 41.8c1.4 0.7 2.6 1.9 3.2 3.6 1.4 3.6-0.5 7.5-3.9 8.7-0.3 0.1-0.6 0.2-0.9 0.2-0.6 0.2-1.2 0.2-1.9 0.2-2.7 0-5.2-1.6-6.2-4.3-0.5-1-0.6-2-0.5-2.9L188.2 692c-0.7-0.2-1.3-0.4-1.8-0.7-1.6-0.9-2.7-2.3-3.4-3.9 0-0.1-0.1-0.3-0.1-0.5s-0.1-0.3-0.1-0.5c-0.4-1.9-0.1-3.9 0.9-5.6 0.6-1 1.4-1.9 2.6-2.6l-3.3 1.3c-3.6 1.4-5.3 5.4-4 8.8l24.8 65.1c1.4 3.6 5.4 5.3 8.8 4l92.3-35.1c3.6-1.4 5.3-5.4 4-8.8z" fill="#E9753E" p-id="3330"></path><path d="M521.8 787.6l-9.9-19.2-94 48.6-61.9 32.2 10 19.4c1.7 3.3 6 4.7 9.3 3l61-31.6-0.1-0.1v-0.1l8.5-4.4 8.8-4.6 65.3-33.9c3.3-1.7 4.7-6 3-9.3zM475.8 699.2l-9.9-19.3c-1.7-3.3-6-4.7-9.3-3L313 751.4c-3.4 1.7-4.7 5.8-3 9.3l10 19.3v-0.1l155.8-80.7z" fill="#D5D5D5" p-id="3331"></path><path d="M511.9 768.4l-18-34.6-18-34.6h-0.1L320 779.9v0.1l18 34.5 18 34.6 61.9-32 94-48.7z m-160.6 33.4l-0.2 0.1h-0.1c-0.3 0-0.5-0.1-0.6-0.3l-9.1-17.4c-0.1-0.3 0-0.7 0.2-0.8l3.3-1.7 0.2-0.1h0.2c0.3 0 0.5 0.1 0.6 0.3l9.1 17.4v0.2c0 0.3-0.1 0.5-0.3 0.6l-3.2 1.7h-0.1z m10.4 12.2s0 0.1-0.1 0.1l-3.3 1.7c-0.2 0.1-0.6 0-0.8-0.2l-4.2-8.3c-0.1-0.1 0-0.2 0-0.4s0.1-0.4 0.3-0.5l3.3-1.7h0.2c0.2 0 0.5 0.1 0.6 0.2l4.2 8.3c0.1 0.3 0 0.7-0.2 0.8z" fill="#666666" p-id="3332"></path><path d="M354.9 799.5v-0.2l-9.1-17.4c-0.1-0.2-0.3-0.3-0.6-0.3h-0.2l-0.2 0.1-3.1 1.6c-0.2 0.1-0.3 0.5-0.2 0.8l9.1 17.4c0.1 0.2 0.3 0.3 0.6 0.3h0.2l3.2-1.7c0.2-0.1 0.3-0.3 0.3-0.6zM357.7 804.9c-0.1-0.2-0.3-0.2-0.6-0.2h-0.2l-3.3 1.7c-0.2 0.1-0.3 0.3-0.3 0.5 0 0.1 0 0.2 0.1 0.3l4.2 8.3c0.1 0.2 0.5 0.3 0.8 0.2l3.3-1.7c0.2-0.1 0.3-0.5 0.2-0.8l-4.2-8.3z" fill="#FFFFFF" p-id="3333"></path><path d="M436.2 839.8v0.1l0.1 0.1 9.5 18.4-26 13.4 2.4 4.6 26-13.5 8.6-4.4 34.7-18-2.5-4.6-25.9 13.4-9.6-18.5-8.8 4.6z" fill="#666666" p-id="3334"></path><path d="M942.1 330.3c0-10 7.1-18.3 16.6-20.3-12.2-42-50.8-72.7-96.6-72.7-33.6 0-63.3 16.5-81.5 41.8 0.9 2.2 1.5 4.7 1.5 7.2 0 8.8-6.3 16.2-14.7 17.8-3.8 10.5-6 22-6 33.9 0 55.6 45.1 100.7 100.7 100.7 51.2 0 93.4-38.3 99.7-87.8-11-0.5-19.7-9.4-19.7-20.6z m-77.4-61.9c8.6 0 15.5 6.9 15.5 15.5s-6.9 15.5-15.5 15.5-15.5-6.9-15.5-15.5 6.9-15.5 15.5-15.5zM811.8 351c-5 0-9.1-4-9.1-9.1 0-5 4-9.1 9.1-9.1 5 0 9.1 4 9.1 9.1-0.1 5.1-4.1 9.1-9.1 9.1z m52.9 76c-11.1 0-20.1-8.9-20.1-20.1 0-11.1 8.9-20.1 20.1-20.1s20.1 8.9 20.1 20.1c0 11-9.1 20.1-20.1 20.1z m18-73.5c-11.3 0-20.6-9.3-20.6-20.6s9.3-20.6 20.6-20.6 20.6 9.3 20.6 20.6c0.1 11.3-9.1 20.6-20.6 20.6z" fill="#DCDDE0" p-id="3335"></path><path d="M182.8 686.4c0 0.2 0.1 0.3 0.1 0.5s0.1 0.4 0.1 0.5c0.6 1.6 1.7 3 3.4 3.9 0.5 0.3 1 0.5 1.6 0.6l50.4 12.6c0.2-2.5 1.8-4.9 4.4-5.8 1.8-0.7 3.9-0.6 5.6 0.3l29.2-41.7c3.5-5-0.4-11.5-5.7-11.5h-0.7c-0.2 0-0.3 0-0.5 0.1-0.5 0.1-0.9 0.2-1.4 0.3L205 670.9l-17.7 6.8c-0.4 0.2-0.8 0.4-1.1 0.6-1.1 0.6-1.9 1.5-2.5 2.5-1 1.7-1.3 3.7-0.9 5.6z" fill="#D36240" p-id="3336"></path><path d="M247.8 711.4c3.4-1.4 5.2-5.3 3.8-8.7-0.6-1.6-1.8-2.9-3.2-3.6-1.6-0.9-3.6-1.1-5.5-0.3-2.5 0.9-4.1 3.3-4.4 5.8-0.1 0.9 0 1.9 0.5 2.9 1.1 2.7 3.6 4.3 6.2 4.3 0.6 0 1.2-0.1 1.8-0.2 0.3-0.1 0.5-0.1 0.8-0.2z" fill="#666666" p-id="3337"></path><path d="M216.2 554L66.5 726.5l3.5 3 150.3-173.2 4.7-5.5 38.2-44-3.4-3-38.8 44.7zM307.36 665.91l21.403-32.842 3.854 2.511-21.403 32.842zM221.208 644.902l20.556-29.553 3.776 2.627-20.556 29.552zM484.317 689.884l4.89-22.27 4.494 0.988-4.891 22.268zM277.148 803.494l14.26-23.043 3.912 2.42-14.26 23.044z" fill="#2A99EF" p-id="3338"></path></svg>