<?xml version="1.0" standalone="no"?><!DOCTYPE svg PUBLIC "-//W3C//DTD SVG 1.1//EN" "http://www.w3.org/Graphics/SVG/1.1/DTD/svg11.dtd"><svg t="1506760283402" class="icon" style="" viewBox="0 0 1024 1024" version="1.1" xmlns="http://www.w3.org/2000/svg" p-id="1732" xmlns:xlink="http://www.w3.org/1999/xlink" width="200" height="200"><defs><style type="text/css"></style></defs><path d="M527.522532 515.243881c-97.589642 0-131.780349-36.004005-152.205541-57.504692-2.879584-3.034103-5.428639-5.719258-7.706519-7.823176-25.786293 26.41665-94.507444 80.528058-199.667505 44.970214-43.918255-14.860453-74.629721-39.658232-91.278913-73.712839-25.771967-52.715619-7.139607-107.662045-6.335289-109.97881l0.765433-2.190899L194.247052 116.185162c10.159384-18.961864 29.416983-30.696116 50.501184-30.696116l565.54859 0c21.074991 0 40.336684 11.734252 50.496068 30.691l123.152854 192.823634 0.765433 2.190899c0.804319 2.316765 19.436678 57.262168-6.330172 109.97881-16.654308 34.054607-47.364751 58.852386-91.288123 73.712839-105.141642 35.567054-173.910888-18.574031-199.658296-44.980447-2.462075 2.258437-4.943592 4.886287-7.667633 7.725962C659.108452 479.181547 624.540146 515.243881 527.522532 515.243881zM367.444696 409.375691c8.81169 0 17.672498 3.140527 25.000394 9.490142 4.03285 3.489474 7.736195 7.396457 11.661597 11.526521 18.088984 19.048845 42.87653 45.1452 123.414821 45.1452 80.072687 0 105.21839-26.232454 123.579573-45.387723 3.877307-4.042059 7.541767-7.862062 11.487635-11.283997 15.607466-13.513782 38.136575-12.486382 52.376904 2.403746 24.293289 25.368784 77.270874 63.786769 159.408593 36.004005 44.049239-14.899338 69.709665-41.209564 76.252685-78.19185 4.323469-24.438599-0.988514-46.404889-2.849908-52.9387L825.962621 135.252427c-3.189645-6.204305-9.199523-10.057053-15.665795-10.057053L244.748237 125.195374c-6.470365 0-12.476149 3.853771-15.665795 10.05296l-0.920976 1.604544L107.252723 326.152245c-1.827625 6.436596-7.173376 28.441772-2.840698 52.92949 6.548136 36.982286 32.203446 63.292512 76.257801 78.19185 82.108043 27.782763 135.12042-10.634198 159.403476-36.004005C347.630419 413.378865 357.508393 409.375691 367.444696 409.375691z" p-id="1733" fill="#2c2c2c"></path><path d="M789.706883 909.179928 279.205003 909.179928c-59.622936 0-108.126626-50.311873-108.126626-112.150266l0-325.176011 39.706327 0 0 325.176011c0 39.948851 30.691 72.442916 68.420299 72.442916L789.706883 869.472578c37.7293 0 68.420299-32.494065 68.420299-72.442916l0-325.176011 39.706327 0 0 325.176011C897.833509 858.867032 849.324702 909.179928 789.706883 909.179928z" p-id="1734" fill="#2c2c2c"></path></svg>